<svg width="160" height="100" viewBox="0 0 160 100" fill="none" xmlns="http://www.w3.org/2000/svg">
<path fill-rule="evenodd" clip-rule="evenodd" d="M59.3001 67.465C59.3001 66.6315 59.5239 65.9788 59.9715 65.5068C60.4191 65.0347 60.9972 64.7987 61.7056 64.7987C62.1476 64.7918 62.583 64.907 62.9638 65.1316C63.3326 65.3498 63.6287 65.6721 63.8148 66.0581C64.0154 66.4789 64.1156 66.9405 64.1076 67.4067C64.1167 67.8823 64.0112 68.3531 63.7999 68.7793C63.6089 69.1664 63.304 69.4857 62.926 69.6943C62.5508 69.8987 62.1294 70.0035 61.7021 69.9986C61.2558 70.0055 60.8166 69.8866 60.4348 69.6554C60.0675 69.4326 59.7733 69.1074 59.5883 68.7198C59.3971 68.3292 59.2984 67.8999 59.3001 67.465ZM59.9864 67.4753C59.9864 68.0808 60.1492 68.5574 60.4748 68.9051C60.6338 69.071 60.8247 69.2029 61.036 69.2931C61.2473 69.3833 61.4747 69.4298 61.7044 69.4298C61.9342 69.4298 62.1615 69.3833 62.3729 69.2931C62.5842 69.2029 62.7751 69.071 62.934 68.9051C63.2574 68.5535 63.419 68.0545 63.419 67.4078C63.4272 67.0402 63.3566 66.6752 63.212 66.3372C63.0854 66.0455 62.8742 65.7985 62.6058 65.628C62.3376 65.4598 62.0267 65.3724 61.7101 65.3764C61.4857 65.3729 61.2627 65.414 61.0542 65.4972C60.8457 65.5805 60.6558 65.7042 60.4954 65.8614C60.1553 66.1793 59.9852 66.7173 59.9852 67.4753H59.9864ZM58.1574 68.3172L57.4928 68.1502C57.4321 68.5196 57.2473 68.8572 56.969 69.1075C56.7027 69.3254 56.3669 69.4399 56.023 69.4301C55.7223 69.4317 55.427 69.3502 55.1697 69.1945C54.9006 69.029 54.6957 68.7769 54.5887 68.4796C54.4575 68.1215 54.3942 67.7422 54.4022 67.3609C54.4017 67.033 54.455 66.7073 54.5601 66.3967C54.657 66.0959 54.8489 65.8346 55.1068 65.652C55.3911 65.456 55.7305 65.3558 56.0756 65.3661C56.3744 65.3548 56.6685 65.4429 56.9118 65.6166C57.1602 65.8239 57.3375 66.104 57.4185 66.4173L58.0728 66.2628C57.9609 65.8336 57.7089 65.454 57.3567 65.1842C56.988 64.9204 56.5425 64.7857 56.0894 64.801C55.6641 64.7963 55.2447 64.9007 54.8712 65.1041C54.5027 65.3053 54.2049 65.6148 54.0179 65.9906C53.8092 66.4175 53.7065 66.8883 53.7182 67.3632C53.7146 67.8253 53.8049 68.2833 53.9836 68.7095C54.1378 69.1006 54.408 69.4351 54.7579 69.668C55.0965 69.8884 55.5365 69.9986 56.0779 69.9986C56.5573 70.0124 57.0266 69.8596 57.4059 69.5662C57.7681 69.2795 58.0186 68.8632 58.1574 68.3172ZM37.4804 69.9117L36.1478 64.888H36.8341L37.5982 68.181C37.6806 68.5257 37.7515 68.8689 37.811 69.2105C37.9391 68.6767 38.0153 68.3671 38.0397 68.2817L38.996 64.8903H39.7966L40.5161 67.433C40.6865 68.016 40.8172 68.6098 40.9073 69.2105C40.9714 68.8933 41.0549 68.5292 41.1578 68.1181L41.9459 64.8903H42.6139L41.2413 69.9128H40.6008L39.5427 66.0856C39.4535 65.7653 39.4009 65.5689 39.3849 65.4965C39.3323 65.7252 39.2831 65.9216 39.2373 66.0856L38.1724 69.9128L37.4804 69.9117ZM43.7657 69.9117V64.888H47.3974V65.4805H44.4303V67.0246H47.2087V67.6137H44.4303V69.3237H47.5186V69.9162L43.7657 69.9117ZM65.4791 64.888V69.9117H66.1219V65.9643L68.7527 69.9105H69.439V64.888H68.7985V68.8319L66.1654 64.888H65.4791ZM71.0724 69.9117V64.888H71.7587L74.3918 68.8319V64.888H75.0289V69.9105H74.3426L71.7049 65.9632V69.9105L71.0724 69.9117ZM76.6852 64.888V69.9117L80.4392 69.9162V69.3237H77.3509V67.6137H80.1292V67.0246H77.3509V65.4805H80.3168V64.888H76.6852ZM85.4618 68.1502L86.1263 68.3172C85.9876 68.8632 85.7371 69.2795 85.3748 69.5662C84.9952 69.8599 84.5254 70.0127 84.0457 69.9986C83.5043 69.9986 83.0643 69.8884 82.7257 69.668C82.3758 69.4351 82.1056 69.1006 81.9514 68.7095C81.7727 68.2833 81.6824 67.8253 81.686 67.3632C81.6742 66.8883 81.777 66.4175 81.9857 65.9906C82.1727 65.6148 82.4705 65.3053 82.839 65.1041C83.2125 64.9007 83.6319 64.7963 84.0571 64.801C84.5103 64.7857 84.9558 64.9204 85.3245 65.1842C85.6767 65.454 85.9287 65.8336 86.0405 66.2628L85.3863 66.4173C85.3052 66.104 85.128 65.8239 84.8796 65.6166C84.6362 65.4429 84.3422 65.3548 84.0434 65.3661C83.6995 65.3537 83.3607 65.4511 83.0757 65.644C82.8178 65.8266 82.626 66.0879 82.529 66.3887C82.4239 66.6993 82.3706 67.025 82.3711 67.3529C82.3632 67.7342 82.4264 68.1135 82.5576 68.4716C82.6646 68.7689 82.8695 69.021 83.1387 69.1865C83.3959 69.3422 83.6912 69.4237 83.9919 69.4221C84.3358 69.4319 84.6716 69.3174 84.9379 69.0995C85.2147 68.8513 85.3993 68.5167 85.4618 68.1502ZM88.7491 65.4816V69.9117H89.4137V65.4816H91.0745V64.8891H87.094V65.4816H88.7491ZM99.4577 67.9397V67.3506H101.585V69.2151C101.281 69.4624 100.94 69.6608 100.574 69.803C100.233 69.933 99.8708 69.9997 99.5057 69.9997C99.0381 70.006 98.5762 69.8972 98.1606 69.6829C97.7666 69.4821 97.4463 69.1618 97.2455 68.7678C97.0361 68.3528 96.9301 67.8933 96.9367 67.4284C96.9327 66.9535 97.0376 66.4839 97.2432 66.0558C97.4274 65.6542 97.7368 65.3231 98.1251 65.1122C98.5343 64.9002 98.9901 64.794 99.4508 64.8033C99.7873 64.7985 100.122 64.8583 100.436 64.9795C100.703 65.0806 100.94 65.2502 101.122 65.4713C101.305 65.7157 101.434 65.996 101.502 66.2937L100.91 66.4527C100.853 66.2366 100.758 66.0324 100.629 65.8499C100.503 65.6927 100.338 65.5716 100.15 65.4988C99.9321 65.4093 99.6987 65.3646 99.4634 65.3672C99.1941 65.3606 98.9262 65.4076 98.6753 65.5056C98.4715 65.5858 98.2882 65.7104 98.1388 65.8705C98.0058 66.0172 97.8986 66.1855 97.822 66.3681C97.692 66.6892 97.6267 67.0328 97.6298 67.3792C97.6163 67.7665 97.6947 68.1514 97.8586 68.5025C98.0036 68.794 98.2403 69.0299 98.5323 69.1739C98.824 69.3189 99.1456 69.3937 99.4714 69.3924C99.7605 69.3923 100.047 69.336 100.314 69.2265C100.54 69.1437 100.751 69.0238 100.938 68.8719V67.9397H99.4577ZM103.068 64.888V69.9117L106.202 69.9105V69.318H103.732V64.888H103.068ZM107.317 67.465C107.317 66.6315 107.541 65.9788 107.988 65.5068C108.436 65.0347 109.014 64.7987 109.722 64.7987C110.164 64.7918 110.6 64.907 110.981 65.1316C111.349 65.3498 111.646 65.6721 111.832 66.0581C112.032 66.4789 112.132 66.9405 112.124 67.4067C112.134 67.8823 112.028 68.3531 111.817 68.7793C111.626 69.1664 111.321 69.4857 110.943 69.6943C110.568 69.8987 110.146 70.0035 109.719 69.9986C109.273 70.0055 108.833 69.8866 108.452 69.6554C108.084 69.4326 107.79 69.1074 107.605 68.7198C107.414 68.3292 107.315 67.8999 107.317 67.465ZM108.003 67.4753C108.003 68.0808 108.166 68.5574 108.492 68.9051C108.651 69.071 108.842 69.2029 109.053 69.2931C109.264 69.3833 109.492 69.4298 109.721 69.4298C109.951 69.4298 110.178 69.3833 110.39 69.2931C110.601 69.2029 110.792 69.071 110.951 68.9051C111.274 68.5535 111.436 68.0545 111.436 67.4078C111.444 67.0402 111.373 66.6752 111.229 66.3372C111.102 66.0455 110.891 65.7985 110.623 65.628C110.354 65.4598 110.043 65.3724 109.727 65.3764C109.502 65.3729 109.28 65.414 109.071 65.4972C108.863 65.5805 108.673 65.7042 108.512 65.8614C108.172 66.1793 108.002 66.7173 108.002 67.4753H108.003ZM113.476 64.888V69.9117L115.39 69.9105C115.662 69.9155 115.934 69.8871 116.2 69.8259C116.398 69.7801 116.585 69.6958 116.75 69.5777C116.908 69.453 117.034 69.2927 117.118 69.1098C117.218 68.9058 117.269 68.6815 117.267 68.4544C117.273 68.1806 117.187 67.9127 117.022 67.6938C116.845 67.4691 116.599 67.3085 116.322 67.2363C116.538 67.1371 116.721 66.9784 116.85 66.7787C116.964 66.597 117.024 66.387 117.025 66.1725C117.023 65.9375 116.955 65.7078 116.828 65.5102C116.699 65.3011 116.509 65.1369 116.283 65.0401C115.989 64.9277 115.675 64.876 115.36 64.888H113.476ZM115.227 66.9995H114.141L114.14 65.4816H115.149C115.405 65.4706 115.662 65.4945 115.913 65.5525C116.055 65.5943 116.178 65.6871 116.256 65.8133C116.336 65.9456 116.375 66.0982 116.37 66.2526C116.376 66.409 116.331 66.5631 116.242 66.6918C116.146 66.815 116.012 66.9027 115.86 66.9411C115.652 66.9884 115.439 67.008 115.227 66.9995ZM115.391 69.3192H114.141L114.14 67.5966H115.307C115.555 67.5857 115.803 67.6123 116.043 67.6755C116.205 67.7255 116.346 67.8282 116.442 67.9672C116.54 68.111 116.59 68.2817 116.587 68.4556C116.589 68.6024 116.555 68.7476 116.487 68.8776C116.428 68.9917 116.341 69.0883 116.233 69.1579C116.115 69.2274 115.984 69.274 115.849 69.2951C115.697 69.3152 115.544 69.3232 115.391 69.3192ZM118.158 69.9117L120.087 64.8891H120.797L122.856 69.9117H122.101L121.515 68.3904H119.415L118.864 69.9117H118.158ZM119.607 67.8528H121.311L120.786 66.4527C120.625 66.0303 120.507 65.6829 120.43 65.4107C120.365 65.7372 120.274 66.058 120.159 66.3704L119.607 67.8528ZM123.885 64.888V69.9117L127.023 69.9105V69.318H124.55V64.888H123.885ZM50.464 67.8013V67.099H51.1663V67.8013H50.464ZM93.4514 67.099V67.8013H94.1537V67.099H93.4514Z" fill="#040000"/>
<path fill-rule="evenodd" clip-rule="evenodd" d="M89.0569 50.6372C90.7193 49.8661 92.0732 48.5572 92.9001 46.9218H98.2761C97.3908 49.9663 95.4367 52.5891 92.7728 54.3085C90.1088 56.0279 86.914 56.7283 83.7751 56.2812C80.6362 55.834 77.764 54.2694 75.6862 51.8745C73.6083 49.4797 72.4643 46.4156 72.4643 43.245C72.4643 40.0744 73.6083 37.0103 75.6862 34.6155C77.764 32.2206 80.6362 30.656 83.7751 30.2088C86.914 29.7617 90.1088 30.4621 92.7728 32.1815C95.4367 33.9009 97.3908 36.5237 98.2761 39.5682H92.9001C92.0732 37.9328 90.7193 36.6239 89.0569 35.8528C87.3945 35.0818 85.5207 34.8935 83.7382 35.3186C81.9556 35.7436 80.3684 36.757 79.2328 38.1953C78.0972 39.6335 77.4795 41.4125 77.4795 43.245C77.4795 45.0775 78.0972 46.8565 79.2328 48.2947C80.3684 49.733 81.9556 50.7464 83.7382 51.1714C85.5207 51.5965 87.3945 51.4082 89.0569 50.6372ZM113.943 42.0331H127.309C127.345 42.4323 127.366 42.8349 127.373 43.2421C127.375 46.4614 126.198 49.5698 124.063 51.9798C121.929 54.3897 118.986 55.9342 115.79 56.3211C112.594 56.708 109.367 55.9105 106.719 54.0795C104.071 52.2484 102.186 49.5107 101.42 46.384C100.654 43.2572 101.06 39.9581 102.562 37.1105C104.063 34.2629 106.556 32.0641 109.569 30.9298C112.581 29.7955 115.905 29.8044 118.912 30.9548C121.919 32.1052 124.4 34.3173 125.886 37.173H119.638C118.37 36.0363 116.778 35.3253 115.085 35.1399C113.393 34.9546 111.684 35.3041 110.2 36.1395C108.716 36.9749 107.531 38.2541 106.812 39.7975C106.092 41.3409 105.874 43.0709 106.188 44.7446C106.502 46.4183 107.333 47.9516 108.563 49.129C109.793 50.3065 111.362 51.069 113.047 51.3094C114.733 51.5499 116.452 51.2562 117.962 50.4697C119.473 49.6831 120.699 48.4432 121.468 46.9241H113.943V42.0331Z" fill="#040000"/>
<path d="M73.5762 30.5296L59.2726 55.25L57.0994 51.4891L69.2102 30.5296H73.5739H73.5762ZM74.489 30.0046H68.9094L56.4897 51.4903L59.2715 56.2944L74.4844 30L74.489 30.0046Z" fill="#040000"/>
<path fill-rule="evenodd" clip-rule="evenodd" d="M38.6059 30.0046H33L48.229 56.299L53.7365 46.7514L55.1274 49.1695L57.9378 44.3047L53.7365 37.0346L48.229 46.6244L38.6059 30.0046Z" fill="#040000"/>
<path fill-rule="evenodd" clip-rule="evenodd" d="M53.7502 51.6024L51.0542 56.2989H56.4611L53.7502 51.6024Z" fill="#B81C22"/>
</svg>
